<svg width="17" height="20" viewBox="0 0 17 20" fill="none" xmlns="http://www.w3.org/2000/svg">
<path fill-rule="evenodd" clip-rule="evenodd" d="M12.4095 3.37817L12.5462 5.09131V5.10718H14.4114C15.284 5.10718 16.0027 5.72559 16.0711 6.53442L16.9949 18.4614C17.0291 18.8582 16.8753 19.2546 16.5843 19.54C16.2938 19.8413 15.8831 20 15.4554 20H1.54425C1.11652 20 0.705872 19.8254 0.415344 19.54C0.124329 19.2546 -0.0294799 18.8582 0.00469974 18.4614L0.928528 6.42358C0.996887 5.67798 1.66437 5.09131 2.46857 5.09131H4.43634L4.57306 3.37817C4.70978 1.49097 6.43781 0 8.49103 0C10.5447 0 12.2557 1.49097 12.4095 3.37817ZM8.49103 0.95166C6.96857 0.95166 5.70245 2.0459 5.59943 3.44165L5.46271 5.09131H11.5027L11.3831 3.44165C11.2801 2.0459 10.014 0.95166 8.49103 0.95166ZM15.9686 18.5249L15.0447 6.5979C15.0101 6.28076 14.7366 6.04272 14.4114 6.04272H2.46857C2.19464 6.04272 1.97198 6.23315 1.9549 6.48682L1.03107 18.5249C1.01398 18.6677 1.06525 18.7788 1.16779 18.8896C1.27081 19.0007 1.40753 19.0483 1.54425 19.0483H15.4554C15.5311 19.0483 15.6068 19.0288 15.6771 18.9951C15.7332 18.9683 15.7859 18.9321 15.8318 18.8896C15.9344 18.7788 15.9857 18.6519 15.9686 18.5249Z" fill="black"/>
</svg>
