<svg width="5" height="11" viewBox="0 0 5 11" fill="none" xmlns="http://www.w3.org/2000/svg">
<path opacity="0.3" d="M4.58272 0C4.66554 2.37342e-05 4.74646 0.026999 4.81515 0.0774772C4.88384 0.127955 4.93718 0.199643 4.96834 0.283374C4.9995 0.367106 5.00708 0.459077 4.99009 0.54753C4.9731 0.635982 4.93233 0.716897 4.87299 0.779929L1.00447 5.00166L4.87299 9.22339C4.91294 9.26525 4.94484 9.31539 4.96681 9.37087C4.98878 9.42636 5.00039 9.48606 5.00096 9.5465C5.00152 9.60694 4.99103 9.6669 4.97009 9.72286C4.94916 9.77882 4.9182 9.82965 4.87904 9.87239C4.83987 9.91513 4.79329 9.94891 4.74201 9.97176C4.69074 9.99461 4.6358 10.0061 4.58041 10.0054C4.52503 10.0048 4.47032 9.99216 4.41948 9.96818C4.36864 9.9442 4.32269 9.90939 4.28433 9.86579L0.121489 5.32286C0.0434494 5.23766 -0.000389576 5.12213 -0.000389576 5.00166C-0.000389576 4.88119 0.0434494 4.76566 0.121489 4.68046L4.28433 0.13753C4.32313 0.0940114 4.36952 0.0594193 4.42077 0.0357975C4.47202 0.0121758 4.52709 3.55132e-06 4.58272 0Z" fill="black"/>
</svg>
