<svg width="16" height="13" viewBox="0 0 16 13" fill="none" xmlns="http://www.w3.org/2000/svg">
<path d="M4.04669 0C1.81469 0 0 1.83577 0 4.04669C0 4.81809 0.349871 5.48622 0.674449 5.96887C0.999028 6.45152 1.33204 6.76135 1.33204 6.76135L7.16602 12.6122L7.55383 13L7.94164 12.6122L13.7756 6.76135C13.7756 6.76135 15.1077 5.58739 15.1077 4.04669C15.1077 1.83577 13.293 0 11.061 0C9.20833 0 8.0154 1.11495 7.55383 1.58495C7.09225 1.11495 5.89932 0 4.04669 0ZM4.04669 1.07912C5.65905 1.07912 7.14916 2.64721 7.14916 2.64721L7.55383 3.10246L7.9585 2.64721C7.9585 2.64721 9.44861 1.07912 11.061 1.07912C12.7028 1.07912 14.0285 2.42591 14.0285 4.04669C14.0285 4.87922 13.0169 6.00259 13.0169 6.00259L7.55383 11.4656L2.09079 6.00259C2.09079 6.00259 1.82944 5.75178 1.56809 5.36187C1.30674 4.97195 1.07912 4.46401 1.07912 4.04669C1.07912 2.42591 2.40483 1.07912 4.04669 1.07912Z" fill="black" fill-opacity="0.6"/>
</svg>
