<svg width="117" height="30" viewBox="0 0 117 30" fill="none" xmlns="http://www.w3.org/2000/svg">
<path d="M28.1292 22.6861C27.681 22.3651 27.1905 22.1059 26.6713 21.9154C25.958 21.6669 25.222 21.4866 24.4737 21.3769C23.5039 21.2111 22.5207 21.1334 21.5364 21.1447H14.2897C13.3055 21.1334 12.3222 21.2111 11.3524 21.3769C10.603 21.4969 9.86703 21.6878 9.15485 21.947C8.63559 22.1375 8.1451 22.3968 7.69693 22.7177C7.39321 22.9313 7.13771 23.2045 6.94654 23.5201L3.83775 29.7069H0L11.5668 6.14235C12.0138 5.23299 12.254 4.23856 12.2707 3.22839C12.2873 2.21823 12.0801 1.21664 11.6633 0.293457H15.5547C16.8411 2.85895 14.7828 7.50428 14.7828 7.50428L9.42285 18.9381C10.0648 18.4816 10.7942 18.1583 11.5668 17.988C12.8844 17.6883 14.235 17.5535 15.5868 17.5868H20.2393C21.5911 17.5535 22.9417 17.6883 24.2593 17.988C25.0319 18.1583 25.7614 18.4816 26.4033 18.9381L21.0433 7.50428C21.0433 7.50428 18.9851 2.85895 20.2715 0.293457H24.1628C23.7461 1.21664 23.5388 2.21823 23.5555 3.22839C23.5721 4.23856 23.8123 5.23299 24.2593 6.14235L35.8261 29.7069H31.9884L28.8796 23.4885C28.6884 23.1728 28.4329 22.8996 28.1292 22.6861Z" fill="white"/>
<path fill-rule="evenodd" clip-rule="evenodd" d="M52.7664 23.9631C52.9729 23.9911 53.1726 24.0555 53.356 24.1532C53.5399 24.2599 53.6916 24.4129 53.7955 24.5966C53.9083 24.812 53.9672 25.0509 53.9672 25.2934C53.9672 25.5358 53.9083 25.7747 53.7955 25.9902C53.6921 26.1624 53.5441 26.3045 53.3667 26.4019C53.1808 26.4915 52.9819 26.5521 52.7771 26.5814C52.6129 26.5923 52.4482 26.5923 52.284 26.5814V26.8664H51.6515V26.5603C51.4837 26.5707 51.3154 26.5707 51.1477 26.5603C50.9463 26.5309 50.7509 26.4703 50.5688 26.3808C50.389 26.2865 50.2403 26.1436 50.14 25.9691C50.0272 25.7536 49.9683 25.5147 49.9683 25.2723C49.9683 25.0298 50.0272 24.7909 50.14 24.5755C50.2529 24.3892 50.4213 24.2418 50.6224 24.1532C50.8019 24.0554 50.9981 23.991 51.2013 23.9631H51.7051V23.6569H52.2733V23.9631H52.7664ZM52.6377 24.4804H52.284V25.9585H52.6377C52.7751 25.9458 52.9092 25.9101 53.0344 25.8529C53.1365 25.7998 53.2246 25.7239 53.2916 25.6312C53.3638 25.5061 53.3973 25.363 53.3881 25.2195C53.3959 25.0794 53.3624 24.9401 53.2916 24.8183C53.2243 24.7193 53.1319 24.6392 53.0236 24.586C52.9029 24.5273 52.772 24.4914 52.6377 24.4804ZM50.9654 25.8846C51.09 25.9432 51.2244 25.979 51.3621 25.9902L51.7158 26.0535V24.5121H51.3621C51.2244 24.5233 51.09 24.559 50.9654 24.6177C50.8582 24.6683 50.7686 24.7491 50.7081 24.85C50.6374 24.9717 50.6039 25.1111 50.6117 25.2511C50.6024 25.3947 50.636 25.5378 50.7081 25.6629C50.7724 25.758 50.8612 25.8345 50.9654 25.8846Z" fill="white"/>
<path fill-rule="evenodd" clip-rule="evenodd" d="M60.9877 23.6154L59.2832 26.8882H59.9264L60.2909 26.1914H62.1026L62.4671 26.8882H63.1103L61.4058 23.6154H60.9877ZM60.5696 25.6319L61.1914 24.4177L61.8239 25.6319H60.5696Z" fill="white"/>
<path fill-rule="evenodd" clip-rule="evenodd" d="M70.8611 24.7873C71.0227 24.8142 71.1786 24.8677 71.3221 24.9456C71.4608 25.0135 71.5764 25.12 71.6544 25.2518C71.738 25.4265 71.7784 25.6183 71.7723 25.8113C71.7785 26.0078 71.7381 26.203 71.6544 26.3815C71.5815 26.525 71.4655 26.643 71.3221 26.7193C71.1761 26.8002 71.0162 26.8539 70.8504 26.8777C70.6648 26.8891 70.4786 26.8891 70.293 26.8777H68.7279V23.6154H71.5043V24.1855H69.296V24.7873H69.7891C70.1458 24.7579 70.5044 24.7579 70.8611 24.7873ZM71.1291 26.1281C71.1779 26.0411 71.2002 25.9421 71.1934 25.843C71.1949 25.7545 71.1727 25.6671 71.1291 25.5896C71.0898 25.5244 71.0345 25.47 70.9683 25.4313C70.8764 25.3916 70.7787 25.3667 70.6789 25.3574C70.3862 25.3398 70.0926 25.3398 69.7999 25.3574H69.3067V26.3603H69.7999C70.0926 26.3779 70.3862 26.3779 70.6789 26.3603C70.7804 26.353 70.8791 26.3242 70.9683 26.2759C71.0341 26.2412 71.0895 26.1903 71.1291 26.1281Z" fill="white"/>
<path fill-rule="evenodd" clip-rule="evenodd" d="M80.1556 23.7529C80.0102 23.6725 79.8497 23.6222 79.6839 23.6051C79.4985 23.5886 79.3119 23.5886 79.1265 23.6051H77.5614V26.8674H78.1509V25.8117H79.1265C79.3121 25.8231 79.4983 25.8231 79.6839 25.8117C79.8507 25.7798 80.0104 25.719 80.1556 25.6322C80.3005 25.5482 80.4163 25.4231 80.4879 25.2732C80.5775 25.093 80.6181 24.8929 80.6058 24.6926C80.6167 24.4889 80.5762 24.2858 80.4879 24.1013C80.4145 23.9554 80.2989 23.8342 80.1556 23.7529ZM80.0269 24.7031C80.0318 24.8089 80.0097 24.9141 79.9626 25.0093C79.9202 25.072 79.8655 25.1258 79.8018 25.1676C79.7139 25.2099 79.6199 25.2384 79.5231 25.2521C79.2304 25.2694 78.9368 25.2694 78.6441 25.2521H78.1509V24.1964H78.6441C78.9368 24.179 79.2304 24.179 79.5231 24.1964C79.6199 24.2101 79.7139 24.2386 79.8018 24.2808C79.8655 24.3226 79.9202 24.3764 79.9626 24.4392C80.0179 24.5182 80.0545 24.6084 80.0698 24.7031H80.0269Z" fill="white"/>
<path d="M86.9412 23.6154V25.8958L89.0316 23.6154H89.4711V26.8882H88.8922V24.6078L86.8125 26.8882H86.3623V23.6154H86.9412Z" fill="white"/>
<path d="M98.3148 23.7737L98.229 23.6154H97.7038L96.4602 24.9667H95.8921V23.6154H95.3132V26.8882H95.8921V25.5368H96.4602L97.7466 26.941L98.154 26.8882L98.2612 26.8565L98.2826 26.6876L96.9748 25.2518L98.2505 23.8476L98.3148 23.7737Z" fill="white"/>
<path fill-rule="evenodd" clip-rule="evenodd" d="M105.465 23.6154H105.883L107.566 26.8882H106.923L106.559 26.1914H104.747L104.382 26.8882H103.739L105.465 23.6154ZM105.626 24.4177L105.004 25.6319H106.258L105.626 24.4177Z" fill="white"/>
<path d="M40.9633 25.484C41.2475 25.484 41.4778 25.2571 41.4778 24.9773C41.4778 24.6974 41.2475 24.4705 40.9633 24.4705C40.6791 24.4705 40.4487 24.6974 40.4487 24.9773C40.4487 25.2571 40.6791 25.484 40.9633 25.484Z" fill="white"/>
<path d="M117 24.9773C117 25.2571 116.77 25.484 116.485 25.484C116.201 25.484 115.971 25.2571 115.971 24.9773C115.971 24.6974 116.201 24.4705 116.485 24.4705C116.77 24.4705 117 24.6974 117 24.9773Z" fill="white"/>
<path fill-rule="evenodd" clip-rule="evenodd" d="M47.5022 2.97589L39.8695 17.6826H42.4638L44.1039 14.5153H52.6156L54.2879 17.6826H56.8714L49.2388 2.97589H47.5022ZM51.5222 12.3721H45.1974L48.4134 6.23818L51.5222 12.3721Z" fill="white"/>
<path d="M63.818 2.97505H66.1335V15.433H76.4247V17.6818H63.818V2.97505Z" fill="white"/>
<path d="M84.1105 17.6818H96.7065V15.433H86.4261V11.4633L96.7065 11.4528V9.20402H86.4261V5.23438H96.7065V2.97505H84.1105V17.6818Z" fill="white"/>
<path d="M117 2.97505V5.23438H106.719V9.20402H117V11.4528L106.719 11.4633V17.6818H104.393V2.97505H117Z" fill="white"/>
</svg>
