<svg width="117" height="30" viewBox="0 0 117 30" fill="none" xmlns="http://www.w3.org/2000/svg">
<path d="M28.1292 22.6856C27.681 22.3647 27.1905 22.1054 26.6713 21.9149C25.958 21.6664 25.222 21.4861 24.4737 21.3764C23.5039 21.2107 22.5207 21.1329 21.5364 21.1442H14.2897C13.3055 21.1329 12.3222 21.2107 11.3524 21.3764C10.603 21.4964 9.86703 21.6873 9.15485 21.9466C8.63559 22.137 8.1451 22.3963 7.69693 22.7173C7.39321 22.9308 7.13771 23.204 6.94654 23.5196L3.83775 29.7064H0L11.5668 6.14187C12.0138 5.23251 12.254 4.23807 12.2707 3.22791C12.2873 2.21774 12.0801 1.21615 11.6633 0.292969H15.5547C16.8411 2.85846 14.7828 7.50379 14.7828 7.50379L9.42285 18.9376C10.0648 18.4811 10.7942 18.1578 11.5668 17.9875C12.8844 17.6878 14.235 17.553 15.5868 17.5863H20.2393C21.5911 17.553 22.9417 17.6878 24.2593 17.9875C25.0319 18.1578 25.7614 18.4811 26.4033 18.9376L21.0433 7.50379C21.0433 7.50379 18.9851 2.85846 20.2715 0.292969H24.1628C23.7461 1.21615 23.5388 2.21774 23.5555 3.22791C23.5721 4.23807 23.8123 5.23251 24.2593 6.14187L35.8261 29.7064H31.9884L28.8796 23.488C28.6884 23.1723 28.4329 22.8991 28.1292 22.6856Z" fill="#ED1C24"/>
<path fill-rule="evenodd" clip-rule="evenodd" d="M52.7664 23.9626C52.9729 23.9906 53.1726 24.055 53.356 24.1527C53.5399 24.2594 53.6916 24.4124 53.7955 24.5961C53.9083 24.8115 53.9672 25.0505 53.9672 25.2929C53.9672 25.5353 53.9083 25.7742 53.7955 25.9897C53.6921 26.1619 53.5441 26.304 53.3667 26.4014C53.1808 26.491 52.9819 26.5516 52.7771 26.5809C52.6129 26.5918 52.4482 26.5918 52.284 26.5809V26.866H51.6515V26.5598C51.4837 26.5702 51.3154 26.5702 51.1477 26.5598C50.9463 26.5304 50.7509 26.4698 50.5688 26.3803C50.389 26.286 50.2403 26.1431 50.14 25.9686C50.0272 25.7531 49.9683 25.5142 49.9683 25.2718C49.9683 25.0293 50.0272 24.7904 50.14 24.575C50.2529 24.3887 50.4213 24.2413 50.6224 24.1527C50.8019 24.0549 50.9981 23.9905 51.2013 23.9626H51.7051V23.6565H52.2733V23.9626H52.7664ZM52.6377 24.4799H52.284V25.958H52.6377C52.7751 25.9453 52.9092 25.9096 53.0344 25.8524C53.1365 25.7993 53.2246 25.7234 53.2916 25.6307C53.3638 25.5056 53.3973 25.3626 53.3881 25.219C53.3959 25.0789 53.3624 24.9396 53.2916 24.8178C53.2243 24.7188 53.1319 24.6387 53.0236 24.5855C52.9029 24.5268 52.772 24.491 52.6377 24.4799ZM50.9654 25.8841C51.09 25.9427 51.2244 25.9785 51.3621 25.9897L51.7158 26.053V24.5116H51.3621C51.2244 24.5228 51.09 24.5586 50.9654 24.6172C50.8582 24.6678 50.7686 24.7487 50.7081 24.8495C50.6374 24.9713 50.6039 25.1106 50.6117 25.2507C50.6024 25.3942 50.636 25.5373 50.7081 25.6624C50.7724 25.7575 50.8612 25.834 50.9654 25.8841Z" fill="#ED1C24"/>
<path fill-rule="evenodd" clip-rule="evenodd" d="M60.9877 23.6149L59.2832 26.8877H59.9264L60.2909 26.1909H62.1026L62.4671 26.8877H63.1103L61.4058 23.6149H60.9877ZM60.5696 25.6314L61.1914 24.4173L61.8239 25.6314H60.5696Z" fill="#ED1C24"/>
<path fill-rule="evenodd" clip-rule="evenodd" d="M70.8611 24.7868C71.0227 24.8137 71.1786 24.8672 71.3221 24.9451C71.4608 25.013 71.5764 25.1195 71.6544 25.2513C71.738 25.4261 71.7784 25.6178 71.7723 25.8109C71.7785 26.0073 71.7381 26.2025 71.6544 26.381C71.5815 26.5245 71.4655 26.6425 71.3221 26.7188C71.1761 26.7997 71.0162 26.8534 70.8504 26.8772C70.6648 26.8886 70.4786 26.8886 70.293 26.8772H68.7279V23.6149H71.5043V24.185H69.296V24.7868H69.7891C70.1458 24.7574 70.5044 24.7574 70.8611 24.7868ZM71.1291 26.1276C71.1779 26.0406 71.2002 25.9417 71.1934 25.8425C71.1949 25.754 71.1727 25.6666 71.1291 25.5891C71.0898 25.524 71.0345 25.4695 70.9683 25.4308C70.8765 25.3911 70.7787 25.3662 70.6789 25.3569C70.3862 25.3393 70.0926 25.3393 69.7998 25.3569H69.3067V26.3598H69.7998C70.0926 26.3774 70.3862 26.3774 70.6789 26.3598C70.7804 26.3525 70.8791 26.3237 70.9683 26.2754C71.0341 26.2407 71.0895 26.1898 71.1291 26.1276Z" fill="#ED1C24"/>
<path fill-rule="evenodd" clip-rule="evenodd" d="M80.1556 23.7524C80.0102 23.672 79.8497 23.6217 79.6839 23.6046C79.4985 23.5881 79.3119 23.5881 79.1265 23.6046H77.5614V26.8669H78.1509V25.8112H79.1265C79.3121 25.8226 79.4983 25.8226 79.6839 25.8112C79.8507 25.7793 80.0104 25.7185 80.1556 25.6317C80.3005 25.5477 80.4163 25.4226 80.4879 25.2727C80.5775 25.0925 80.6181 24.8924 80.6058 24.6921C80.6167 24.4884 80.5762 24.2853 80.4879 24.1008C80.4145 23.9549 80.2989 23.8337 80.1556 23.7524ZM80.0269 24.7026C80.0318 24.8084 80.0097 24.9136 79.9626 25.0088C79.9202 25.0715 79.8655 25.1254 79.8018 25.1672C79.7139 25.2094 79.6199 25.2379 79.5231 25.2516C79.2304 25.269 78.9368 25.269 78.6441 25.2516H78.1509V24.1959H78.6441C78.9368 24.1785 79.2304 24.1785 79.5231 24.1959C79.6199 24.2096 79.7139 24.2381 79.8018 24.2803C79.8655 24.3221 79.9202 24.3759 79.9626 24.4387C80.0179 24.5177 80.0545 24.6079 80.0698 24.7026H80.0269Z" fill="#ED1C24"/>
<path d="M86.9412 23.6149V25.8953L89.0316 23.6149H89.4711V26.8877H88.8922V24.6073L86.8125 26.8877H86.3623V23.6149H86.9412Z" fill="#ED1C24"/>
<path d="M98.3148 23.7732L98.229 23.6149H97.7038L96.4602 24.9662H95.8921V23.6149H95.3132V26.8877H95.8921V25.5364H96.4602L97.7466 26.9405L98.154 26.8877L98.2612 26.8561L98.2826 26.6871L96.9748 25.2513L98.2505 23.8471L98.3148 23.7732Z" fill="#ED1C24"/>
<path fill-rule="evenodd" clip-rule="evenodd" d="M105.465 23.6149H105.883L107.566 26.8877H106.923L106.559 26.1909H104.747L104.383 26.8877H103.739L105.465 23.6149ZM105.626 24.4173L105.004 25.6314H106.258L105.626 24.4173Z" fill="#ED1C24"/>
<path d="M40.9633 25.4835C41.2475 25.4835 41.4778 25.2567 41.4778 24.9768C41.4778 24.6969 41.2475 24.47 40.9633 24.47C40.6791 24.47 40.4487 24.6969 40.4487 24.9768C40.4487 25.2567 40.6791 25.4835 40.9633 25.4835Z" fill="#ED1C24"/>
<path d="M117 24.9768C117 25.2567 116.77 25.4835 116.485 25.4835C116.201 25.4835 115.971 25.2567 115.971 24.9768C115.971 24.6969 116.201 24.47 116.485 24.47C116.77 24.47 117 24.6969 117 24.9768Z" fill="#ED1C24"/>
<path fill-rule="evenodd" clip-rule="evenodd" d="M47.5022 2.9754L39.8695 17.6821H42.4638L44.1039 14.5148H52.6156L54.2879 17.6821H56.8714L49.2388 2.9754H47.5022ZM51.5222 12.3716H45.1974L48.4134 6.23769L51.5222 12.3716Z" fill="#ED1C24"/>
<path d="M63.818 2.97457H66.1335V15.4325H76.4247V17.6813H63.818V2.97457Z" fill="#ED1C24"/>
<path d="M84.1105 17.6813H96.7065V15.4325H86.4261V11.4629L96.7065 11.4523V9.20354H86.4261V5.23389H96.7065V2.97457H84.1105V17.6813Z" fill="#ED1C24"/>
<path d="M117 2.97457V5.23389H106.719V9.20354H117V11.4523L106.719 11.4629V17.6813H104.393V2.97457H117Z" fill="#ED1C24"/>
</svg>
