<svg width="17" height="20" viewBox="0 0 17 20" fill="none" xmlns="http://www.w3.org/2000/svg">
<path fill-rule="evenodd" clip-rule="evenodd" d="M13.9341 5.802C13.9341 8.6752 11.6049 11.0044 8.73169 11.0044C5.85849 11.0044 3.5293 8.6752 3.5293 5.802C3.5293 2.9288 5.85849 0.599609 8.73169 0.599609C11.6049 0.599609 13.9341 2.9288 13.9341 5.802ZM12.9341 5.802C12.9341 8.12292 11.0526 10.0044 8.73169 10.0044C6.41077 10.0044 4.5293 8.12292 4.5293 5.802C4.5293 3.48108 6.41077 1.59961 8.73169 1.59961C11.0526 1.59961 12.9341 3.48108 12.9341 5.802Z" fill="black"/>
<path fill-rule="evenodd" clip-rule="evenodd" d="M10.8815 12.8316H6.58315C4.59206 12.8316 2.71081 14.5348 1.47826 16.0985L0.789588 16.9722C0.0141191 17.9561 0.714923 19.4008 1.96764 19.4008H15.497C16.7497 19.4008 17.4505 17.9561 16.6751 16.9722L15.9864 16.0985C14.7538 14.5348 12.8726 12.8316 10.8815 12.8316ZM15.8897 17.5913C16.1482 17.9192 15.9146 18.4008 15.497 18.4008H1.96764C1.55007 18.4008 1.31647 17.9192 1.57496 17.5913L2.26363 16.7175C3.30655 15.3944 4.89839 13.8316 6.58315 13.8316H10.8815C12.5663 13.8316 14.1581 15.3944 15.201 16.7175L15.8897 17.5913Z" fill="black"/>
</svg>
