<svg width="20" height="20" viewBox="0 0 20 20" fill="none" xmlns="http://www.w3.org/2000/svg">
<path d="M10 0C4.48437 0 0 4.48437 0 10C0 15.5156 4.48437 20 10 20C15.5156 20 20 15.5156 20 10C20 4.48437 15.5156 0 10 0ZM10 1.5C14.7031 1.5 18.5 5.29688 18.5 10C18.5 14.7031 14.7031 18.5 10 18.5C5.29688 18.5 1.5 14.7031 1.5 10C1.5 5.29688 5.29688 1.5 10 1.5ZM9.23958 3.98958C8.82292 3.99479 8.49479 4.33854 8.5 4.75V10.25C8.5 10.4479 8.57812 10.6406 8.71875 10.7813L11.2187 13.2813C11.4062 13.474 11.6875 13.5573 11.9479 13.4844C12.2135 13.4167 12.4167 13.2135 12.4844 12.9479C12.5573 12.6875 12.474 12.4062 12.2813 12.2187L10 9.9375V4.75C10.0052 4.54688 9.92188 4.35417 9.78125 4.20833C9.63542 4.06771 9.44271 3.98437 9.23958 3.98958Z" fill="black" fill-opacity="0.1"/>
</svg>
