<svg width="21" height="20" viewBox="0 0 21 20" fill="none" xmlns="http://www.w3.org/2000/svg">
<path fill-rule="evenodd" clip-rule="evenodd" d="M15.3226 15.4613C13.8046 16.7478 11.8401 17.5236 9.69443 17.5236C4.884 17.5236 0.984375 13.624 0.984375 8.81357C0.984375 4.00314 4.884 0.103516 9.69443 0.103516C14.5049 0.103516 18.4045 4.00314 18.4045 8.81357C18.4045 11.1184 17.5093 13.2141 16.0476 14.772L20.3183 19.0427C20.5135 19.238 20.5135 19.5546 20.3183 19.7498C20.123 19.9451 19.8064 19.9451 19.6112 19.7498L15.3226 15.4613ZM17.4045 8.81357C17.4045 13.0717 13.9526 16.5236 9.69443 16.5236C5.43629 16.5236 1.98438 13.0717 1.98438 8.81357C1.98438 4.55543 5.43629 1.10352 9.69443 1.10352C13.9526 1.10352 17.4045 4.55543 17.4045 8.81357Z" fill="black"/>
</svg>
