<svg>
    <symbol id="close-icon" width="13" height="12" viewBox="0 0 13 12" xmlns="http://www.w3.org/2000/svg">
        <path d="M1.54716 0L0.703125 0.844037L5.85909 6L0.703125 11.156L1.54716 12L6.70312 6.84404L11.8591 12L12.7031 11.156L7.54716 6L12.7031 0.844037L11.8591 0L6.70312 5.15596L1.54716 0Z"/>
    </symbol>

    <symbol id="cart-icon" width="17" height="20" viewBox="0 0 17 20" xmlns="http://www.w3.org/2000/svg">
        <path fill-rule="evenodd" clip-rule="evenodd" d="M12.4095 3.37817L12.5462 5.09131V5.10718H14.4114C15.284 5.10718 16.0027 5.72559 16.0711 6.53442L16.9949 18.4614C17.0291 18.8582 16.8753 19.2546 16.5843 19.54C16.2938 19.8413 15.8831 20 15.4554 20H1.54425C1.11652 20 0.705872 19.8254 0.415344 19.54C0.124329 19.2546 -0.0294799 18.8582 0.00469974 18.4614L0.928528 6.42358C0.996887 5.67798 1.66437 5.09131 2.46857 5.09131H4.43634L4.57306 3.37817C4.70978 1.49097 6.43781 0 8.49103 0C10.5447 0 12.2557 1.49097 12.4095 3.37817ZM8.49103 0.95166C6.96857 0.95166 5.70245 2.0459 5.59943 3.44165L5.46271 5.09131H11.5027L11.3831 3.44165C11.2801 2.0459 10.014 0.95166 8.49103 0.95166ZM15.9686 18.5249L15.0447 6.5979C15.0101 6.28076 14.7366 6.04272 14.4114 6.04272H2.46857C2.19464 6.04272 1.97198 6.23315 1.9549 6.48682L1.03107 18.5249C1.01398 18.6677 1.06525 18.7788 1.16779 18.8896C1.27081 19.0007 1.40753 19.0483 1.54425 19.0483H15.4554C15.5311 19.0483 15.6068 19.0288 15.6771 18.9951C15.7332 18.9683 15.7859 18.9321 15.8318 18.8896C15.9344 18.7788 15.9857 18.6519 15.9686 18.5249Z"/>
    </symbol>
    <symbol id="personal-icon" width="17" height="20" viewBox="0 0 17 20" xmlns="http://www.w3.org/2000/svg">
        <path fill-rule="evenodd" clip-rule="evenodd" d="M13.9341 5.802C13.9341 8.6752 11.6049 11.0044 8.73169 11.0044C5.85849 11.0044 3.5293 8.6752 3.5293 5.802C3.5293 2.9288 5.85849 0.599609 8.73169 0.599609C11.6049 0.599609 13.9341 2.9288 13.9341 5.802ZM12.9341 5.802C12.9341 8.12292 11.0526 10.0044 8.73169 10.0044C6.41077 10.0044 4.5293 8.12292 4.5293 5.802C4.5293 3.48108 6.41077 1.59961 8.73169 1.59961C11.0526 1.59961 12.9341 3.48108 12.9341 5.802Z"/>
        <path fill-rule="evenodd" clip-rule="evenodd" d="M10.8815 12.8316H6.58315C4.59206 12.8316 2.71081 14.5348 1.47826 16.0985L0.789588 16.9722C0.0141191 17.9561 0.714923 19.4008 1.96764 19.4008H15.497C16.7497 19.4008 17.4505 17.9561 16.6751 16.9722L15.9864 16.0985C14.7538 14.5348 12.8726 12.8316 10.8815 12.8316ZM15.8897 17.5913C16.1482 17.9192 15.9146 18.4008 15.497 18.4008H1.96764C1.55007 18.4008 1.31647 17.9192 1.57496 17.5913L2.26363 16.7175C3.30655 15.3944 4.89839 13.8316 6.58315 13.8316H10.8815C12.5663 13.8316 14.1581 15.3944 15.201 16.7175L15.8897 17.5913Z"/>
    </symbol>
    <symbol id="search-icon" width="21" height="20" viewBox="0 0 21 20" xmlns="http://www.w3.org/2000/svg">
        <path fill-rule="evenodd" clip-rule="evenodd" d="M15.3226 15.4613C13.8046 16.7478 11.8401 17.5236 9.69443 17.5236C4.884 17.5236 0.984375 13.624 0.984375 8.81357C0.984375 4.00314 4.884 0.103516 9.69443 0.103516C14.5049 0.103516 18.4045 4.00314 18.4045 8.81357C18.4045 11.1184 17.5093 13.2141 16.0476 14.772L20.3183 19.0427C20.5135 19.238 20.5135 19.5546 20.3183 19.7498C20.123 19.9451 19.8064 19.9451 19.6112 19.7498L15.3226 15.4613ZM17.4045 8.81357C17.4045 13.0717 13.9526 16.5236 9.69443 16.5236C5.43629 16.5236 1.98438 13.0717 1.98438 8.81357C1.98438 4.55543 5.43629 1.10352 9.69443 1.10352C13.9526 1.10352 17.4045 4.55543 17.4045 8.81357Z"/>
    </symbol>

    <symbol id="menu-icon" width="22" height="19" viewBox="0 0 22 19" xmlns="http://www.w3.org/2000/svg">
        <path d="M0 0.707031V2.70703H21.75V0.707031H0ZM0 8.70703V10.707H21.75V8.70703H0ZM0 16.707V18.707H21.75V16.707H0Z"/>
    </symbol>

    <symbol id="email-icon" width="21" height="14" viewBox="0 0 21 14" xmlns="http://www.w3.org/2000/svg">
        <path d="M0 0V14H20.2222V0H0ZM3.35417 1.55556H16.8681L10.1111 6.05208L3.35417 1.55556ZM1.55556 2.23611L6.80556 5.73611L1.55556 9.40625V2.23611ZM18.6667 2.23611V9.40625L13.4167 5.73611L18.6667 2.23611ZM8.16667 6.65972L9.67361 7.65625L10.1111 7.92361L10.5486 7.65625L12.0556 6.65972L18.6667 11.2778V12.4444H1.55556V11.2778L8.16667 6.65972Z"/>
    </symbol>

    <symbol id="instagram-icon" width="37" height="36" viewBox="0 0 37 36" xmlns="http://www.w3.org/2000/svg">
        <path d="M11.0852 0C5.27486 0 0.5 4.76847 0.5 10.5852V25.4148C0.5 31.2251 5.26847 36 11.0852 36H25.9148C31.7251 36 36.5 31.2315 36.5 25.4148V10.5852C36.5 4.77486 31.7315 0 25.9148 0H11.0852ZM11.0852 3.27273H25.9148C29.9609 3.27273 33.2273 6.53906 33.2273 10.5852V25.4148C33.2273 29.4609 29.9609 32.7273 25.9148 32.7273H11.0852C7.03906 32.7273 3.77273 29.4609 3.77273 25.4148V10.5852C3.77273 6.53906 7.03906 3.27273 11.0852 3.27273ZM28.1648 6.85227C27.3402 6.85227 26.6818 7.51065 26.6818 8.33523C26.6818 9.1598 27.3402 9.81818 28.1648 9.81818C28.9893 9.81818 29.6477 9.1598 29.6477 8.33523C29.6477 7.51065 28.9893 6.85227 28.1648 6.85227ZM18.5 8.18182C13.0987 8.18182 8.68182 12.5987 8.68182 18C8.68182 23.4013 13.0987 27.8182 18.5 27.8182C23.9013 27.8182 28.3182 23.4013 28.3182 18C28.3182 12.5987 23.9013 8.18182 18.5 8.18182ZM18.5 11.4545C22.1371 11.4545 25.0455 14.3629 25.0455 18C25.0455 21.6371 22.1371 24.5455 18.5 24.5455C14.8629 24.5455 11.9545 21.6371 11.9545 18C11.9545 14.3629 14.8629 11.4545 18.5 11.4545Z"/>
    </symbol>
    <symbol id="vk-icon" width="37" height="36" viewBox="0 0 37 36" xmlns="http://www.w3.org/2000/svg">
        <path d="M7.17969 0C3.51065 0 0.5 3.01065 0.5 6.67969V29.3203C0.5 32.9893 3.51065 36 7.17969 36H29.8203C33.4893 36 36.5 32.9893 36.5 29.3203V6.67969C36.5 3.01065 33.4893 0 29.8203 0H7.17969ZM7.17969 3.27273H29.8203C31.7188 3.27273 33.2273 4.78125 33.2273 6.67969V29.3203C33.2273 31.2188 31.7188 32.7273 29.8203 32.7273H7.17969C5.28125 32.7273 3.77273 31.2188 3.77273 29.3203V6.67969C3.77273 4.78125 5.28125 3.27273 7.17969 3.27273ZM18.0398 11.8317C16.8381 11.8189 15.8153 11.8317 15.2401 12.1129C14.8565 12.2983 14.5625 12.7202 14.7415 12.7393C14.9652 12.7713 15.4702 12.88 15.7386 13.2443C16.0838 13.7109 16.071 14.7656 16.071 14.7656C16.071 14.7656 16.2628 17.6676 15.6044 18.032C15.1506 18.2812 14.5305 17.7763 13.1882 15.4688C12.5043 14.2798 11.9865 12.9695 11.9865 12.9695C11.9865 12.9695 11.8906 12.7266 11.7116 12.5987C11.4943 12.4389 11.1939 12.3878 11.1939 12.3878L7.99148 12.407C7.99148 12.407 7.51207 12.4261 7.33949 12.6307C7.17969 12.8224 7.3267 13.1996 7.3267 13.1996C7.3267 13.1996 9.83239 19.0611 12.6705 22.0142C15.272 24.7244 18.2251 24.5455 18.2251 24.5455H19.5675C19.5675 24.5455 19.9702 24.5007 20.1747 24.2834C20.3665 24.0788 20.3601 23.6953 20.3601 23.6953C20.3601 23.6953 20.3345 21.8991 21.1655 21.6307C21.9901 21.375 23.0384 23.3693 24.157 24.1364C25.0071 24.718 25.6527 24.5902 25.6527 24.5902L28.6442 24.5455C28.6442 24.5455 30.2038 24.4496 29.4624 23.2159C29.4048 23.12 29.0341 22.3082 27.2443 20.6463C25.3651 18.9077 25.6143 19.1889 27.8771 16.1783C29.2514 14.3437 29.8011 13.2251 29.6286 12.7393C29.4624 12.2855 28.4524 12.407 28.4524 12.407L25.0838 12.4261C25.0838 12.4261 24.8345 12.3942 24.6491 12.5028C24.4702 12.6115 24.3551 12.8672 24.3551 12.8672C24.3551 12.8672 23.8182 14.2862 23.1087 15.4943C21.6129 18.0384 21.0057 18.179 20.7628 18.0192C20.1939 17.6484 20.3345 16.5362 20.3345 15.75C20.3345 13.2763 20.7116 12.2536 19.6058 11.9851C19.2415 11.8956 18.973 11.8381 18.0398 11.8317Z"/>
    </symbol>
    <symbol id="fb-icon" width="37" height="36" viewBox="0 0 37 36" xmlns="http://www.w3.org/2000/svg">
        <path d="M18.5 0C8.57664 0 0.5 8.07664 0.5 18C0.5 27.9234 8.57664 36 18.5 36C28.4234 36 36.5 27.9234 36.5 18C36.5 8.07664 28.4234 0 18.5 0ZM18.5 3C26.802 3 33.5 9.69796 33.5 18C33.5 25.5411 27.9675 31.7419 20.7324 32.8184V22.374H25.0039L25.6748 18.0352H20.7324V15.665C20.7324 13.8635 21.3243 12.2637 23.0088 12.2637H25.7158V8.47852C25.2403 8.41402 24.234 8.27344 22.332 8.27344C18.36 8.27344 16.0332 10.3704 16.0332 15.1494V18.0352H11.9492V22.374H16.0332V32.7803C8.91328 31.606 3.5 25.4596 3.5 18C3.5 9.69796 10.198 3 18.5 3Z"/>
    </symbol>
    <symbol id="ok-icon" width="19" height="32" viewBox="0 0 19 32" xmlns="http://www.w3.org/2000/svg">
        <path d="M9.50042 4.84069C11.3867 4.84069 12.9207 6.37472 12.9207 8.261C12.9207 10.1416 11.3867 11.6756 9.50042 11.6756C7.61414 11.6756 6.08012 10.1416 6.08012 8.261C6.08012 6.37472 7.61414 4.84069 9.50042 4.84069ZM9.50042 16.5163C14.057 16.5163 17.7614 12.8119 17.7614 8.261C17.7614 3.70438 14.057 0 9.50042 0C4.94381 0 1.24511 3.70438 1.24511 8.261C1.24511 12.8119 4.94381 16.5163 9.50042 16.5163ZM12.8412 23.2547C14.5229 22.8683 16.1422 22.2036 17.6364 21.2661C18.7671 20.5559 19.108 19.0617 18.3978 17.931C17.6819 16.7947 16.1933 16.4538 15.057 17.1697C11.6765 19.2946 7.32438 19.2946 3.93817 17.1697C2.80754 16.4538 1.31329 16.7947 0.603091 17.931C-0.107106 19.0617 0.233787 20.5559 1.36442 21.2661C2.85867 22.2036 4.47792 22.8683 6.15966 23.2547L1.54055 27.8681C0.597407 28.8112 0.597407 30.3452 1.54055 31.2884C2.0178 31.76 2.63141 31.9986 3.2507 31.9986C3.86999 31.9986 4.48928 31.76 4.96653 31.2884L9.50042 26.7545L14.04 31.2884C14.9831 32.2372 16.5115 32.2372 17.4603 31.2884C18.4034 30.3452 18.4034 28.8112 17.4603 27.8681L12.8412 23.2547Z"/>
    </symbol>
</svg>