<svg>
    <symbol id="close-icon" width="13" height="12" viewBox="0 0 13 12" xmlns="http://www.w3.org/2000/svg">
        <path d="M1.54716 0L0.703125 0.844037L5.85909 6L0.703125 11.156L1.54716 12L6.70312 6.84404L11.8591 12L12.7031 11.156L7.54716 6L12.7031 0.844037L11.8591 0L6.70312 5.15596L1.54716 0Z"/>
    </symbol>

    <symbol id="cart-icon" width="17" height="20" viewBox="0 0 17 20" xmlns="http://www.w3.org/2000/svg">
        <path fill-rule="evenodd" clip-rule="evenodd" d="M12.4095 3.37817L12.5462 5.09131V5.10718H14.4114C15.284 5.10718 16.0027 5.72559 16.0711 6.53442L16.9949 18.4614C17.0291 18.8582 16.8753 19.2546 16.5843 19.54C16.2938 19.8413 15.8831 20 15.4554 20H1.54425C1.11652 20 0.705872 19.8254 0.415344 19.54C0.124329 19.2546 -0.0294799 18.8582 0.00469974 18.4614L0.928528 6.42358C0.996887 5.67798 1.66437 5.09131 2.46857 5.09131H4.43634L4.57306 3.37817C4.70978 1.49097 6.43781 0 8.49103 0C10.5447 0 12.2557 1.49097 12.4095 3.37817ZM8.49103 0.95166C6.96857 0.95166 5.70245 2.0459 5.59943 3.44165L5.46271 5.09131H11.5027L11.3831 3.44165C11.2801 2.0459 10.014 0.95166 8.49103 0.95166ZM15.9686 18.5249L15.0447 6.5979C15.0101 6.28076 14.7366 6.04272 14.4114 6.04272H2.46857C2.19464 6.04272 1.97198 6.23315 1.9549 6.48682L1.03107 18.5249C1.01398 18.6677 1.06525 18.7788 1.16779 18.8896C1.27081 19.0007 1.40753 19.0483 1.54425 19.0483H15.4554C15.5311 19.0483 15.6068 19.0288 15.6771 18.9951C15.7332 18.9683 15.7859 18.9321 15.8318 18.8896C15.9344 18.7788 15.9857 18.6519 15.9686 18.5249Z"/>
    </symbol>
    <symbol id="personal-icon" width="17" height="20" viewBox="0 0 17 20" xmlns="http://www.w3.org/2000/svg">
        <path fill-rule="evenodd" clip-rule="evenodd" d="M13.9341 5.802C13.9341 8.6752 11.6049 11.0044 8.73169 11.0044C5.85849 11.0044 3.5293 8.6752 3.5293 5.802C3.5293 2.9288 5.85849 0.599609 8.73169 0.599609C11.6049 0.599609 13.9341 2.9288 13.9341 5.802ZM12.9341 5.802C12.9341 8.12292 11.0526 10.0044 8.73169 10.0044C6.41077 10.0044 4.5293 8.12292 4.5293 5.802C4.5293 3.48108 6.41077 1.59961 8.73169 1.59961C11.0526 1.59961 12.9341 3.48108 12.9341 5.802Z"/>
        <path fill-rule="evenodd" clip-rule="evenodd" d="M10.8815 12.8316H6.58315C4.59206 12.8316 2.71081 14.5348 1.47826 16.0985L0.789588 16.9722C0.0141191 17.9561 0.714923 19.4008 1.96764 19.4008H15.497C16.7497 19.4008 17.4505 17.9561 16.6751 16.9722L15.9864 16.0985C14.7538 14.5348 12.8726 12.8316 10.8815 12.8316ZM15.8897 17.5913C16.1482 17.9192 15.9146 18.4008 15.497 18.4008H1.96764C1.55007 18.4008 1.31647 17.9192 1.57496 17.5913L2.26363 16.7175C3.30655 15.3944 4.89839 13.8316 6.58315 13.8316H10.8815C12.5663 13.8316 14.1581 15.3944 15.201 16.7175L15.8897 17.5913Z"/>
    </symbol>
    <symbol id="search-icon" width="21" height="20" viewBox="0 0 21 20" xmlns="http://www.w3.org/2000/svg">
        <path fill-rule="evenodd" clip-rule="evenodd" d="M15.3226 15.4613C13.8046 16.7478 11.8401 17.5236 9.69443 17.5236C4.884 17.5236 0.984375 13.624 0.984375 8.81357C0.984375 4.00314 4.884 0.103516 9.69443 0.103516C14.5049 0.103516 18.4045 4.00314 18.4045 8.81357C18.4045 11.1184 17.5093 13.2141 16.0476 14.772L20.3183 19.0427C20.5135 19.238 20.5135 19.5546 20.3183 19.7498C20.123 19.9451 19.8064 19.9451 19.6112 19.7498L15.3226 15.4613ZM17.4045 8.81357C17.4045 13.0717 13.9526 16.5236 9.69443 16.5236C5.43629 16.5236 1.98438 13.0717 1.98438 8.81357C1.98438 4.55543 5.43629 1.10352 9.69443 1.10352C13.9526 1.10352 17.4045 4.55543 17.4045 8.81357Z"/>
    </symbol>

    <symbol id="menu-icon" width="22" height="19" viewBox="0 0 22 19" xmlns="http://www.w3.org/2000/svg">
        <path d="M0 0.707031V2.70703H21.75V0.707031H0ZM0 8.70703V10.707H21.75V8.70703H0ZM0 16.707V18.707H21.75V16.707H0Z"/>
    </symbol>

    <symbol id="email-icon" width="21" height="14" viewBox="0 0 21 14" xmlns="http://www.w3.org/2000/svg">
        <path d="M0 0V14H20.2222V0H0ZM3.35417 1.55556H16.8681L10.1111 6.05208L3.35417 1.55556ZM1.55556 2.23611L6.80556 5.73611L1.55556 9.40625V2.23611ZM18.6667 2.23611V9.40625L13.4167 5.73611L18.6667 2.23611ZM8.16667 6.65972L9.67361 7.65625L10.1111 7.92361L10.5486 7.65625L12.0556 6.65972L18.6667 11.2778V12.4444H1.55556V11.2778L8.16667 6.65972Z"/>
    </symbol>

    <symbol id="instagram-icon" width="37" height="36" viewBox="0 0 37 36" xmlns="http://www.w3.org/2000/svg">
        <path d="M11.0852 0C5.27486 0 0.5 4.76847 0.5 10.5852V25.4148C0.5 31.2251 5.26847 36 11.0852 36H25.9148C31.7251 36 36.5 31.2315 36.5 25.4148V10.5852C36.5 4.77486 31.7315 0 25.9148 0H11.0852ZM11.0852 3.27273H25.9148C29.9609 3.27273 33.2273 6.53906 33.2273 10.5852V25.4148C33.2273 29.4609 29.9609 32.7273 25.9148 32.7273H11.0852C7.03906 32.7273 3.77273 29.4609 3.77273 25.4148V10.5852C3.77273 6.53906 7.03906 3.27273 11.0852 3.27273ZM28.1648 6.85227C27.3402 6.85227 26.6818 7.51065 26.6818 8.33523C26.6818 9.1598 27.3402 9.81818 28.1648 9.81818C28.9893 9.81818 29.6477 9.1598 29.6477 8.33523C29.6477 7.51065 28.9893 6.85227 28.1648 6.85227ZM18.5 8.18182C13.0987 8.18182 8.68182 12.5987 8.68182 18C8.68182 23.4013 13.0987 27.8182 18.5 27.8182C23.9013 27.8182 28.3182 23.4013 28.3182 18C28.3182 12.5987 23.9013 8.18182 18.5 8.18182ZM18.5 11.4545C22.1371 11.4545 25.0455 14.3629 25.0455 18C25.0455 21.6371 22.1371 24.5455 18.5 24.5455C14.8629 24.5455 11.9545 21.6371 11.9545 18C11.9545 14.3629 14.8629 11.4545 18.5 11.4545Z"/>
    </symbol>
    <symbol id="vk-icon" width="37" height="36" viewBox="0 0 37 36" xmlns="http://www.w3.org/2000/svg">
        <path d="M7.17969 0C3.51065 0 0.5 3.01065 0.5 6.67969V29.3203C0.5 32.9893 3.51065 36 7.17969 36H29.8203C33.4893 36 36.5 32.9893 36.5 29.3203V6.67969C36.5 3.01065 33.4893 0 29.8203 0H7.17969ZM7.17969 3.27273H29.8203C31.7188 3.27273 33.2273 4.78125 33.2273 6.67969V29.3203C33.2273 31.2188 31.7188 32.7273 29.8203 32.7273H7.17969C5.28125 32.7273 3.77273 31.2188 3.77273 29.3203V6.67969C3.77273 4.78125 5.28125 3.27273 7.17969 3.27273ZM18.0398 11.8317C16.8381 11.8189 15.8153 11.8317 15.2401 12.1129C14.8565 12.2983 14.5625 12.7202 14.7415 12.7393C14.9652 12.7713 15.4702 12.88 15.7386 13.2443C16.0838 13.7109 16.071 14.7656 16.071 14.7656C16.071 14.7656 16.2628 17.6676 15.6044 18.032C15.1506 18.2812 14.5305 17.7763 13.1882 15.4688C12.5043 14.2798 11.9865 12.9695 11.9865 12.9695C11.9865 12.9695 11.8906 12.7266 11.7116 12.5987C11.4943 12.4389 11.1939 12.3878 11.1939 12.3878L7.99148 12.407C7.99148 12.407 7.51207 12.4261 7.33949 12.6307C7.17969 12.8224 7.3267 13.1996 7.3267 13.1996C7.3267 13.1996 9.83239 19.0611 12.6705 22.0142C15.272 24.7244 18.2251 24.5455 18.2251 24.5455H19.5675C19.5675 24.5455 19.9702 24.5007 20.1747 24.2834C20.3665 24.0788 20.3601 23.6953 20.3601 23.6953C20.3601 23.6953 20.3345 21.8991 21.1655 21.6307C21.9901 21.375 23.0384 23.3693 24.157 24.1364C25.0071 24.718 25.6527 24.5902 25.6527 24.5902L28.6442 24.5455C28.6442 24.5455 30.2038 24.4496 29.4624 23.2159C29.4048 23.12 29.0341 22.3082 27.2443 20.6463C25.3651 18.9077 25.6143 19.1889 27.8771 16.1783C29.2514 14.3437 29.8011 13.2251 29.6286 12.7393C29.4624 12.2855 28.4524 12.407 28.4524 12.407L25.0838 12.4261C25.0838 12.4261 24.8345 12.3942 24.6491 12.5028C24.4702 12.6115 24.3551 12.8672 24.3551 12.8672C24.3551 12.8672 23.8182 14.2862 23.1087 15.4943C21.6129 18.0384 21.0057 18.179 20.7628 18.0192C20.1939 17.6484 20.3345 16.5362 20.3345 15.75C20.3345 13.2763 20.7116 12.2536 19.6058 11.9851C19.2415 11.8956 18.973 11.8381 18.0398 11.8317Z"/>
    </symbol>
    <symbol id="fb-icon" width="37" height="36" viewBox="0 0 37 36" xmlns="http://www.w3.org/2000/svg">
        <path d="M18.5 0C8.57664 0 0.5 8.07664 0.5 18C0.5 27.9234 8.57664 36 18.5 36C28.4234 36 36.5 27.9234 36.5 18C36.5 8.07664 28.4234 0 18.5 0ZM18.5 3C26.802 3 33.5 9.69796 33.5 18C33.5 25.5411 27.9675 31.7419 20.7324 32.8184V22.374H25.0039L25.6748 18.0352H20.7324V15.665C20.7324 13.8635 21.3243 12.2637 23.0088 12.2637H25.7158V8.47852C25.2403 8.41402 24.234 8.27344 22.332 8.27344C18.36 8.27344 16.0332 10.3704 16.0332 15.1494V18.0352H11.9492V22.374H16.0332V32.7803C8.91328 31.606 3.5 25.4596 3.5 18C3.5 9.69796 10.198 3 18.5 3Z"/>
    </symbol>
    <symbol id="ok-icon" width="19" height="32" viewBox="0 0 19 32" xmlns="http://www.w3.org/2000/svg">
        <path d="M9.50042 4.84069C11.3867 4.84069 12.9207 6.37472 12.9207 8.261C12.9207 10.1416 11.3867 11.6756 9.50042 11.6756C7.61414 11.6756 6.08012 10.1416 6.08012 8.261C6.08012 6.37472 7.61414 4.84069 9.50042 4.84069ZM9.50042 16.5163C14.057 16.5163 17.7614 12.8119 17.7614 8.261C17.7614 3.70438 14.057 0 9.50042 0C4.94381 0 1.24511 3.70438 1.24511 8.261C1.24511 12.8119 4.94381 16.5163 9.50042 16.5163ZM12.8412 23.2547C14.5229 22.8683 16.1422 22.2036 17.6364 21.2661C18.7671 20.5559 19.108 19.0617 18.3978 17.931C17.6819 16.7947 16.1933 16.4538 15.057 17.1697C11.6765 19.2946 7.32438 19.2946 3.93817 17.1697C2.80754 16.4538 1.31329 16.7947 0.603091 17.931C-0.107106 19.0617 0.233787 20.5559 1.36442 21.2661C2.85867 22.2036 4.47792 22.8683 6.15966 23.2547L1.54055 27.8681C0.597407 28.8112 0.597407 30.3452 1.54055 31.2884C2.0178 31.76 2.63141 31.9986 3.2507 31.9986C3.86999 31.9986 4.48928 31.76 4.96653 31.2884L9.50042 26.7545L14.04 31.2884C14.9831 32.2372 16.5115 32.2372 17.4603 31.2884C18.4034 30.3452 18.4034 28.8112 17.4603 27.8681L12.8412 23.2547Z"/>
    </symbol>

    <symbol id="delivery-icon" width="80" height="61" viewBox="0 0 80 61" xmlns="http://www.w3.org/2000/svg">
        <path d="M0 0.0800781V3.32332H44.95C45.5875 3.32332 46.4 4.1468 46.4 4.79292V48.7287H30.25C29.4875 44.1299 25.5438 40.6206 20.8 40.6206C16.0562 40.6206 12.1125 44.1299 11.35 48.7287H4.8C3.9125 48.7287 3.2 48.0066 3.2 47.1071V32.5125H0V47.1071C0 49.7739 2.16875 51.972 4.8 51.972H11.35C12.1125 56.5708 16.0562 60.0801 20.8 60.0801C25.5438 60.0801 29.4875 56.5708 30.25 51.972H54.55C55.3125 56.5708 59.2563 60.0801 64 60.0801C68.7438 60.0801 72.6875 56.5708 73.45 51.972H75.2C76.5313 51.972 77.7 51.3639 78.55 50.5024C79.4 49.6409 80 48.4563 80 47.1071V31.5497C80 29.7253 79.3125 28.0531 78.7 26.7862C78.0875 25.5193 77.45 24.6071 77.45 24.6071V24.5564L70.9 15.6375H70.85V15.5868C69.4313 13.7878 67.1563 11.4314 64 11.4314H51.2C50.625 11.4314 50.1 11.5391 49.6 11.7355V4.79292C49.6 2.19579 47.5125 0.0800781 44.95 0.0800781H0ZM0 6.56656V9.80981H28.8V6.56656H0ZM0 13.0531V16.2963H24V13.0531H0ZM51.2 14.6747H57.6V29.2693C57.6 30.6185 58.2 31.8031 59.05 32.6645C59.9 33.526 61.0688 34.1341 62.4 34.1341H76.8V47.1071C76.8 47.3795 76.6 47.8166 76.25 48.1713C75.9 48.526 75.4688 48.7287 75.2 48.7287H73.45C72.6875 44.1299 68.7438 40.6206 64 40.6206C59.2563 40.6206 55.3125 44.1299 54.55 48.7287H49.6V16.2963C49.6 16.0239 49.8 15.5868 50.15 15.2321C50.5 14.8774 50.9313 14.6747 51.2 14.6747ZM60.8 14.6747H64C65.3188 14.6747 67.1563 16.1759 68.3 17.6139L74.85 26.4821L74.9 26.5328C74.9313 26.5771 75.3625 27.1979 75.85 28.2051C76.2563 29.0412 76.4688 30.0357 76.6 30.8909H62.4C62.1313 30.8909 61.7 30.6882 61.35 30.3335C61 29.9787 60.8 29.5416 60.8 29.2693V14.6747ZM0 19.5395V22.7828H19.2V19.5395H0ZM0 26.026V29.2693H14.4V26.026H0ZM20.8 43.8639C24.3562 43.8639 27.2 46.746 27.2 50.3503C27.2 53.9547 24.3562 56.8368 20.8 56.8368C17.2438 56.8368 14.4 53.9547 14.4 50.3503C14.4 46.746 17.2438 43.8639 20.8 43.8639ZM64 43.8639C67.5563 43.8639 70.4 46.746 70.4 50.3503C70.4 53.9547 67.5563 56.8368 64 56.8368C60.4438 56.8368 57.6 53.9547 57.6 50.3503C57.6 46.746 60.4438 43.8639 64 43.8639Z"/>
    </symbol>
    <symbol id="return-icon" width="60" height="61" viewBox="0 0 60 61" xmlns="http://www.w3.org/2000/svg">
        <path d="M30 0.0800781C13.4473 0.0800781 8.97786e-05 13.5273 8.97786e-05 30.08C-0.0057692 30.619 0.27548 31.1229 0.744228 31.3983C1.21298 31.6678 1.78719 31.6678 2.25594 31.3983C2.72469 31.1229 3.00594 30.619 3.00008 30.08C3.00008 15.1503 15.0703 3.08007 30 3.08007C39.3691 3.08007 47.5897 7.84958 52.4354 15.08H41.9999C41.4609 15.0742 40.957 15.3554 40.6816 15.8242C40.412 16.2929 40.412 16.8671 40.6816 17.3359C40.957 17.8046 41.4609 18.0859 41.9999 18.08H56.9999V3.08007C57.0057 2.67577 56.8475 2.28319 56.5604 1.99609C56.2733 1.70898 55.8807 1.55078 55.4764 1.55663C54.6503 1.57421 53.9882 2.2539 53.9999 3.08007V12.0976C48.5214 4.80272 39.8085 0.0800781 30 0.0800781ZM58.4764 28.5565C57.6502 28.5741 56.9881 29.2538 56.9999 30.08C56.9999 45.0096 44.9296 57.0798 30 57.0798C20.6309 57.0798 12.4043 52.3103 7.56451 45.0799H18C18.5391 45.0916 19.043 44.8045 19.3184 44.3416C19.5879 43.8729 19.5879 43.2928 19.3184 42.824C19.043 42.3612 18.5391 42.074 18 42.0799H5.16804C4.97468 42.0448 4.78132 42.0448 4.58796 42.0799H3.00008V57.0798C2.99422 57.6189 3.27547 58.1228 3.74422 58.3982C4.21296 58.6677 4.78718 58.6677 5.25593 58.3982C5.72468 58.1228 6.00592 57.6189 6.00007 57.0798V48.0564C11.4727 55.3513 20.1914 60.0798 30 60.0798C46.5526 60.0798 59.9998 46.6326 59.9998 30.08C60.0057 29.6757 59.8475 29.2831 59.5604 28.996C59.2733 28.7089 58.8807 28.5507 58.4764 28.5565Z"/>
    </symbol>
    <symbol id="guaranty-icon" width="56" height="61" viewBox="0 0 56 61" xmlns="http://www.w3.org/2000/svg">
        <path d="M28 0.0800781C24.8792 0.0800781 22.2425 1.72449 18.3327 3.62831C14.423 5.53213 9.18766 7.83016 0.99929 9.53184L0 9.7389V10.7083C0 29.165 6.81788 41.4886 13.6644 49.1365C20.511 56.7845 27.4656 59.8354 27.4656 59.8354L28.0273 60.0801L28.5767 59.8142C28.5767 59.8142 56 46.4361 56 10.7083V9.7389L55.0007 9.53184C46.8123 7.83016 41.577 5.53213 37.6673 3.62831C33.7575 1.72449 31.1208 0.0800781 28 0.0800781ZM28 2.48949C30.0949 2.48949 32.5104 3.82723 36.5039 5.77184C40.2945 7.61765 45.6419 9.85587 53.3725 11.5813C52.9216 44.2668 29.6265 56.5073 27.9801 57.3295C27.1851 56.9639 21.676 54.3568 15.6083 47.5789C9.20696 40.4283 2.85132 28.9452 2.625 11.5813C10.3571 9.8558 15.705 7.61786 19.4961 5.77184C23.4896 3.82723 25.9051 2.48949 28 2.48949ZM28.6712 12.0095C25.0252 12.0095 22.3995 13.1516 21.0945 15.1836C19.8991 17.0448 19.965 19.3893 20.6147 21.8142C20.3123 22.2682 20.11 22.8134 20.1971 23.5248C20.2972 24.3452 20.5227 24.9785 20.913 25.4707C21.0401 25.631 21.25 25.6275 21.4102 25.746C21.5711 26.6098 21.9426 27.3685 22.3896 27.946C22.6686 28.3064 22.9572 28.6127 23.2248 28.8589C23.2696 28.9001 23.3176 28.9204 23.359 28.9577V30.633C23.218 30.9414 22.9592 31.2122 22.3448 31.5318C21.6869 31.8742 20.7513 32.2053 19.7621 32.6495C18.7729 33.0937 17.7086 33.6638 16.8438 34.5954C15.9789 35.5269 15.3737 36.8223 15.2752 38.4424C15.2654 38.6061 15.291 38.7699 15.3504 38.9239C15.4098 39.0778 15.5018 39.2187 15.6207 39.3379C15.7396 39.457 15.8829 39.552 16.042 39.6169C16.201 39.6818 16.3723 39.7153 16.5455 39.7154H39.4545C39.6277 39.7153 39.799 39.6818 39.958 39.6169C40.1171 39.552 40.2604 39.457 40.3793 39.3379C40.4982 39.2187 40.5902 39.0778 40.6496 38.9239C40.709 38.7699 40.7346 38.6061 40.7248 38.4424C40.6252 36.8226 40.0191 35.5267 39.1538 34.5954C38.2885 33.6641 37.2249 33.0937 36.2354 32.6495C35.246 32.2053 34.3108 31.8741 33.6527 31.5318C33.0397 31.213 32.7798 30.9422 32.6385 30.6354V28.9436C32.681 28.9036 32.7338 28.8796 32.7802 28.8354C33.0434 28.5845 33.328 28.2755 33.6005 27.9154C34.0061 27.3794 34.2327 26.6128 34.4158 25.8471C34.6304 25.7116 34.8912 25.7003 35.0547 25.4942C35.4454 25.0015 35.6712 24.3665 35.7706 23.546C35.8351 23.0116 35.7787 22.5177 35.5842 22.073C35.5479 21.9901 35.4076 21.9525 35.3604 21.8707C35.8348 20.1562 35.9802 18.2924 35.2809 16.6189C34.5857 14.9552 32.806 13.7812 30.456 13.4965L29.7053 12.5107C29.5873 12.3554 29.432 12.229 29.2521 12.1419C29.0723 12.0547 28.8732 12.0094 28.6712 12.0095ZM28.0895 14.5107L28.6016 15.1836C28.7193 15.3385 28.8742 15.4647 29.0536 15.5518C29.2329 15.639 29.4316 15.6845 29.6332 15.6848C31.692 15.6848 32.446 16.385 32.9144 17.506C33.3828 18.6269 33.3138 20.3146 32.8175 21.7742C32.7389 22.0066 32.7368 22.2562 32.8114 22.4898C32.8859 22.7234 33.0337 22.9301 33.2351 23.0824C33.243 23.1203 33.2585 23.1403 33.2425 23.273C33.1825 23.7686 33.0698 23.9407 33.0362 23.9907C32.7796 24.0684 32.5556 24.2212 32.3966 24.4272C32.2375 24.6331 32.1516 24.8815 32.1513 25.1365C32.1513 25.4275 31.9012 26.0222 31.5298 26.513C31.3441 26.7584 31.1409 26.9812 30.9755 27.1389C30.8101 27.2966 30.6156 27.4084 30.7543 27.3365C30.5541 27.4404 30.3871 27.5932 30.2708 27.7791C30.1545 27.9649 30.0931 28.177 30.093 28.393V30.9742C30.0924 31.112 30.1168 31.2489 30.1651 31.3789C30.582 32.486 31.5201 33.1706 32.4272 33.6424C33.3343 34.1142 34.2899 34.4424 35.1442 34.826C35.9985 35.2095 36.7285 35.633 37.2422 36.186C37.4824 36.4445 37.524 36.9559 37.6822 37.306H18.3153C18.4732 36.9558 18.5154 36.4444 18.7553 36.186C19.2684 35.6333 19.9993 35.2094 20.8533 34.826C21.7074 34.4425 22.6632 34.1145 23.5703 33.6424C24.4774 33.1704 25.4132 32.4841 25.8299 31.3765C25.8791 31.2467 25.9043 31.1098 25.9045 30.9718V28.393C25.9044 28.1761 25.8425 27.9632 25.7252 27.7769C25.608 27.5905 25.4397 27.4376 25.2383 27.3342C25.3548 27.394 25.1661 27.285 24.9996 27.1318C24.8332 26.9787 24.6287 26.7625 24.4428 26.5224C24.0712 26.0423 23.8164 25.4658 23.8164 25.1154C23.8166 24.8599 23.7309 24.611 23.5719 24.4046C23.4128 24.1982 23.1885 24.045 22.9315 23.9671C22.8971 23.9159 22.7855 23.7438 22.7251 23.2495C22.7251 23.2487 22.7251 23.2479 22.7251 23.2471C22.712 23.1399 22.7278 23.0846 22.745 23.0495C22.9384 22.8992 23.0806 22.6983 23.154 22.4719C23.2274 22.2455 23.2287 22.0036 23.1577 21.7765C22.4359 19.4868 22.5099 17.6181 23.2695 16.4354C23.9676 15.3485 25.4539 14.632 28.0895 14.5107Z"/>
    </symbol>
    <symbol id="equip-icon" width="60" height="60" viewBox="0 0 60 60" xmlns="http://www.w3.org/2000/svg">
        <path d="M34.7268 0.00306073C34.2793 0.00994561 33.8318 0.030602 33.3773 0.0856845C32.4753 0.202735 31.4907 0.505689 30.7334 1.26307L1.09895 30.8975C-0.36762 32.3641 -0.36762 34.7739 1.09895 36.2405L23.7585 58.9001C25.2251 60.3666 27.635 60.3666 29.1015 58.9001L58.736 29.2657C59.4865 28.5152 59.7963 27.5168 59.9133 26.6217C60.0304 25.7197 59.996 24.8384 59.996 23.9709V4.56803C59.996 2.06177 57.9373 0.00306073 55.431 0.00306073H36.0282C35.6082 0.00306073 35.1675 -0.00382591 34.7268 0.00306073ZM34.7682 2.6126C35.1469 2.59883 35.5875 2.6126 36.0282 2.6126H55.431C56.5258 2.6126 57.3864 3.47326 57.3864 4.56803V23.9709C57.3864 24.8797 57.3864 25.6991 57.3038 26.2912C57.2281 26.8902 57.111 27.1863 56.8976 27.3929L27.2632 57.0686C26.8018 57.5299 26.0582 57.5299 25.5969 57.0686L25.4317 56.862L2.93045 34.4021C2.46913 33.9408 2.46913 33.1972 2.93045 32.7359L32.6062 3.10145C32.8058 2.89489 33.1432 2.77096 33.7491 2.69522C34.0452 2.65391 34.3826 2.61948 34.7682 2.6126ZM48.2565 6.52346C45.3922 6.52346 43.0374 8.87135 43.0374 11.7425C43.0374 14.6068 45.3922 16.9616 48.2565 16.9616C51.1277 16.9616 53.4756 14.6068 53.4756 11.7425C53.4756 8.87135 51.1277 6.52346 48.2565 6.52346ZM48.2565 9.13299C49.7162 9.13299 50.866 10.2828 50.866 11.7425C50.866 13.1953 49.7162 14.3521 48.2565 14.3521C46.8037 14.3521 45.647 13.1953 45.647 11.7425C45.647 10.2828 46.8037 9.13299 48.2565 9.13299Z"/>
    </symbol>


    <symbol id="main-logo" width="117" height="30" viewBox="0 0 117 30" xmlns="http://www.w3.org/2000/svg">
        <path d="M28.1292 22.6856C27.681 22.3647 27.1905 22.1054 26.6713 21.9149C25.958 21.6664 25.222 21.4861 24.4737 21.3764C23.5039 21.2107 22.5207 21.1329 21.5364 21.1442H14.2897C13.3055 21.1329 12.3222 21.2107 11.3524 21.3764C10.603 21.4964 9.86703 21.6873 9.15485 21.9466C8.63559 22.137 8.1451 22.3963 7.69693 22.7173C7.39321 22.9308 7.13771 23.204 6.94654 23.5196L3.83775 29.7064H0L11.5668 6.14187C12.0138 5.23251 12.254 4.23807 12.2707 3.22791C12.2873 2.21774 12.0801 1.21615 11.6633 0.292969H15.5547C16.8411 2.85846 14.7828 7.50379 14.7828 7.50379L9.42285 18.9376C10.0648 18.4811 10.7942 18.1578 11.5668 17.9875C12.8844 17.6878 14.235 17.553 15.5868 17.5863H20.2393C21.5911 17.553 22.9417 17.6878 24.2593 17.9875C25.0319 18.1578 25.7614 18.4811 26.4033 18.9376L21.0433 7.50379C21.0433 7.50379 18.9851 2.85846 20.2715 0.292969H24.1628C23.7461 1.21615 23.5388 2.21774 23.5555 3.22791C23.5721 4.23807 23.8123 5.23251 24.2593 6.14187L35.8261 29.7064H31.9884L28.8796 23.488C28.6884 23.1723 28.4329 22.8991 28.1292 22.6856Z"/>
        <path fill-rule="evenodd" clip-rule="evenodd" d="M52.7664 23.9626C52.9729 23.9906 53.1726 24.055 53.356 24.1527C53.5399 24.2594 53.6916 24.4124 53.7955 24.5961C53.9083 24.8115 53.9672 25.0505 53.9672 25.2929C53.9672 25.5353 53.9083 25.7742 53.7955 25.9897C53.6921 26.1619 53.5441 26.304 53.3667 26.4014C53.1808 26.491 52.9819 26.5516 52.7771 26.5809C52.6129 26.5918 52.4482 26.5918 52.284 26.5809V26.866H51.6515V26.5598C51.4837 26.5702 51.3154 26.5702 51.1477 26.5598C50.9463 26.5304 50.7509 26.4698 50.5688 26.3803C50.389 26.286 50.2403 26.1431 50.14 25.9686C50.0272 25.7531 49.9683 25.5142 49.9683 25.2718C49.9683 25.0293 50.0272 24.7904 50.14 24.575C50.2529 24.3887 50.4213 24.2413 50.6224 24.1527C50.8019 24.0549 50.9981 23.9905 51.2013 23.9626H51.7051V23.6565H52.2733V23.9626H52.7664ZM52.6377 24.4799H52.284V25.958H52.6377C52.7751 25.9453 52.9092 25.9096 53.0344 25.8524C53.1365 25.7993 53.2246 25.7234 53.2916 25.6307C53.3638 25.5056 53.3973 25.3626 53.3881 25.219C53.3959 25.0789 53.3624 24.9396 53.2916 24.8178C53.2243 24.7188 53.1319 24.6387 53.0236 24.5855C52.9029 24.5268 52.772 24.491 52.6377 24.4799ZM50.9654 25.8841C51.09 25.9427 51.2244 25.9785 51.3621 25.9897L51.7158 26.053V24.5116H51.3621C51.2244 24.5228 51.09 24.5586 50.9654 24.6172C50.8582 24.6678 50.7686 24.7487 50.7081 24.8495C50.6374 24.9713 50.6039 25.1106 50.6117 25.2507C50.6024 25.3942 50.636 25.5373 50.7081 25.6624C50.7724 25.7575 50.8612 25.834 50.9654 25.8841Z"/>
        <path fill-rule="evenodd" clip-rule="evenodd" d="M60.9877 23.6149L59.2832 26.8877H59.9264L60.2909 26.1909H62.1026L62.4671 26.8877H63.1103L61.4058 23.6149H60.9877ZM60.5696 25.6314L61.1914 24.4173L61.8239 25.6314H60.5696Z"/>
        <path fill-rule="evenodd" clip-rule="evenodd" d="M70.8611 24.7868C71.0227 24.8137 71.1786 24.8672 71.3221 24.9451C71.4608 25.013 71.5764 25.1195 71.6544 25.2513C71.738 25.4261 71.7784 25.6178 71.7723 25.8109C71.7785 26.0073 71.7381 26.2025 71.6544 26.381C71.5815 26.5245 71.4655 26.6425 71.3221 26.7188C71.1761 26.7997 71.0162 26.8534 70.8504 26.8772C70.6648 26.8886 70.4786 26.8886 70.293 26.8772H68.7279V23.6149H71.5043V24.185H69.296V24.7868H69.7891C70.1458 24.7574 70.5044 24.7574 70.8611 24.7868ZM71.1291 26.1276C71.1779 26.0406 71.2002 25.9417 71.1934 25.8425C71.1949 25.754 71.1727 25.6666 71.1291 25.5891C71.0898 25.524 71.0345 25.4695 70.9683 25.4308C70.8765 25.3911 70.7787 25.3662 70.6789 25.3569C70.3862 25.3393 70.0926 25.3393 69.7998 25.3569H69.3067V26.3598H69.7998C70.0926 26.3774 70.3862 26.3774 70.6789 26.3598C70.7804 26.3525 70.8791 26.3237 70.9683 26.2754C71.0341 26.2407 71.0895 26.1898 71.1291 26.1276Z"/>
        <path fill-rule="evenodd" clip-rule="evenodd" d="M80.1556 23.7524C80.0102 23.672 79.8497 23.6217 79.6839 23.6046C79.4985 23.5881 79.3119 23.5881 79.1265 23.6046H77.5614V26.8669H78.1509V25.8112H79.1265C79.3121 25.8226 79.4983 25.8226 79.6839 25.8112C79.8507 25.7793 80.0104 25.7185 80.1556 25.6317C80.3005 25.5477 80.4163 25.4226 80.4879 25.2727C80.5775 25.0925 80.6181 24.8924 80.6058 24.6921C80.6167 24.4884 80.5762 24.2853 80.4879 24.1008C80.4145 23.9549 80.2989 23.8337 80.1556 23.7524ZM80.0269 24.7026C80.0318 24.8084 80.0097 24.9136 79.9626 25.0088C79.9202 25.0715 79.8655 25.1254 79.8018 25.1672C79.7139 25.2094 79.6199 25.2379 79.5231 25.2516C79.2304 25.269 78.9368 25.269 78.6441 25.2516H78.1509V24.1959H78.6441C78.9368 24.1785 79.2304 24.1785 79.5231 24.1959C79.6199 24.2096 79.7139 24.2381 79.8018 24.2803C79.8655 24.3221 79.9202 24.3759 79.9626 24.4387C80.0179 24.5177 80.0545 24.6079 80.0698 24.7026H80.0269Z"/>
        <path d="M86.9412 23.6149V25.8953L89.0316 23.6149H89.4711V26.8877H88.8922V24.6073L86.8125 26.8877H86.3623V23.6149H86.9412Z"/>
        <path d="M98.3148 23.7732L98.229 23.6149H97.7038L96.4602 24.9662H95.8921V23.6149H95.3132V26.8877H95.8921V25.5364H96.4602L97.7466 26.9405L98.154 26.8877L98.2612 26.8561L98.2826 26.6871L96.9748 25.2513L98.2505 23.8471L98.3148 23.7732Z"/>
        <path fill-rule="evenodd" clip-rule="evenodd" d="M105.465 23.6149H105.883L107.566 26.8877H106.923L106.559 26.1909H104.747L104.383 26.8877H103.739L105.465 23.6149ZM105.626 24.4173L105.004 25.6314H106.258L105.626 24.4173Z"/>
        <path d="M40.9633 25.4835C41.2475 25.4835 41.4778 25.2567 41.4778 24.9768C41.4778 24.6969 41.2475 24.47 40.9633 24.47C40.6791 24.47 40.4487 24.6969 40.4487 24.9768C40.4487 25.2567 40.6791 25.4835 40.9633 25.4835Z"/>
        <path d="M117 24.9768C117 25.2567 116.77 25.4835 116.485 25.4835C116.201 25.4835 115.971 25.2567 115.971 24.9768C115.971 24.6969 116.201 24.47 116.485 24.47C116.77 24.47 117 24.6969 117 24.9768Z"/>
        <path fill-rule="evenodd" clip-rule="evenodd" d="M47.5022 2.9754L39.8695 17.6821H42.4638L44.1039 14.5148H52.6156L54.2879 17.6821H56.8714L49.2388 2.9754H47.5022ZM51.5222 12.3716H45.1974L48.4134 6.23769L51.5222 12.3716Z"/>
        <path d="M63.818 2.97457H66.1335V15.4325H76.4247V17.6813H63.818V2.97457Z"/>
        <path d="M84.1105 17.6813H96.7065V15.4325H86.4261V11.4629L96.7065 11.4523V9.20354H86.4261V5.23389H96.7065V2.97457H84.1105V17.6813Z"/>
        <path d="M117 2.97457V5.23389H106.719V9.20354H117V11.4523L106.719 11.4629V17.6813H104.393V2.97457H117Z"/>
    </symbol>

    <symbol id="previous-icon" width="20" height="20" viewBox="0 0 20 20" xmlns="http://www.w3.org/2000/svg">
        <path d="M10 0C4.48437 0 0 4.48437 0 10C0 15.5156 4.48437 20 10 20C15.5156 20 20 15.5156 20 10C20 4.48437 15.5156 0 10 0ZM10 1.5C14.7031 1.5 18.5 5.29688 18.5 10C18.5 14.7031 14.7031 18.5 10 18.5C5.29688 18.5 1.5 14.7031 1.5 10C1.5 5.29688 5.29688 1.5 10 1.5ZM9.23958 3.98958C8.82292 3.99479 8.49479 4.33854 8.5 4.75V10.25C8.5 10.4479 8.57812 10.6406 8.71875 10.7813L11.2187 13.2813C11.4062 13.474 11.6875 13.5573 11.9479 13.4844C12.2135 13.4167 12.4167 13.2135 12.4844 12.9479C12.5573 12.6875 12.474 12.4062 12.2813 12.2187L10 9.9375V4.75C10.0052 4.54688 9.92188 4.35417 9.78125 4.20833C9.63542 4.06771 9.44271 3.98437 9.23958 3.98958Z" />
    </symbol>

    <symbol id="arrow-slider-left" viewBox="0 0 23 32" fill="none" xmlns="http://www.w3.org/2000/svg"><path d="M22 1L2 16l20 15" stroke="currentColor" stroke-width="2"/></symbol>
    <symbol id="arrow-slider-right" viewBox="0 0 23 32" fill="none" xmlns="http://www.w3.org/2000/svg"><path d="M1 1l20 15L1 31" stroke="currentColor" stroke-width="2"/></symbol>
    <symbol id="arrow-way" viewBox="0 0 15.698 8.706" xmlns="http://www.w3.org/2000/svg"><path fill="currentColor" d="M11.354 0l-.708.706 3.14 3.147H0v1h13.786L10.646 8l.708.706 4.344-4.353z"/></symbol>

</svg>