<svg>
    <symbol id="close-icon" width="13" height="12" viewBox="0 0 13 12" xmlns="http://www.w3.org/2000/svg">
        <path d="M1.54716 0L0.703125 0.844037L5.85909 6L0.703125 11.156L1.54716 12L6.70312 6.84404L11.8591 12L12.7031 11.156L7.54716 6L12.7031 0.844037L11.8591 0L6.70312 5.15596L1.54716 0Z"/>
    </symbol>
    <symbol id="cart-icon" width="17" height="20" viewBox="0 0 17 20" xmlns="http://www.w3.org/2000/svg">
        <path fill-rule="evenodd" clip-rule="evenodd" d="M12.4095 3.37817L12.5462 5.09131V5.10718H14.4114C15.284 5.10718 16.0027 5.72559 16.0711 6.53442L16.9949 18.4614C17.0291 18.8582 16.8753 19.2546 16.5843 19.54C16.2938 19.8413 15.8831 20 15.4554 20H1.54425C1.11652 20 0.705872 19.8254 0.415344 19.54C0.124329 19.2546 -0.0294799 18.8582 0.00469974 18.4614L0.928528 6.42358C0.996887 5.67798 1.66437 5.09131 2.46857 5.09131H4.43634L4.57306 3.37817C4.70978 1.49097 6.43781 0 8.49103 0C10.5447 0 12.2557 1.49097 12.4095 3.37817ZM8.49103 0.95166C6.96857 0.95166 5.70245 2.0459 5.59943 3.44165L5.46271 5.09131H11.5027L11.3831 3.44165C11.2801 2.0459 10.014 0.95166 8.49103 0.95166ZM15.9686 18.5249L15.0447 6.5979C15.0101 6.28076 14.7366 6.04272 14.4114 6.04272H2.46857C2.19464 6.04272 1.97198 6.23315 1.9549 6.48682L1.03107 18.5249C1.01398 18.6677 1.06525 18.7788 1.16779 18.8896C1.27081 19.0007 1.40753 19.0483 1.54425 19.0483H15.4554C15.5311 19.0483 15.6068 19.0288 15.6771 18.9951C15.7332 18.9683 15.7859 18.9321 15.8318 18.8896C15.9344 18.7788 15.9857 18.6519 15.9686 18.5249Z"/>
    </symbol>
    <symbol id="personal-icon" width="17" height="20" viewBox="0 0 17 20" xmlns="http://www.w3.org/2000/svg">
        <path fill-rule="evenodd" clip-rule="evenodd" d="M13.9341 5.802C13.9341 8.6752 11.6049 11.0044 8.73169 11.0044C5.85849 11.0044 3.5293 8.6752 3.5293 5.802C3.5293 2.9288 5.85849 0.599609 8.73169 0.599609C11.6049 0.599609 13.9341 2.9288 13.9341 5.802ZM12.9341 5.802C12.9341 8.12292 11.0526 10.0044 8.73169 10.0044C6.41077 10.0044 4.5293 8.12292 4.5293 5.802C4.5293 3.48108 6.41077 1.59961 8.73169 1.59961C11.0526 1.59961 12.9341 3.48108 12.9341 5.802Z"/>
        <path fill-rule="evenodd" clip-rule="evenodd" d="M10.8815 12.8316H6.58315C4.59206 12.8316 2.71081 14.5348 1.47826 16.0985L0.789588 16.9722C0.0141191 17.9561 0.714923 19.4008 1.96764 19.4008H15.497C16.7497 19.4008 17.4505 17.9561 16.6751 16.9722L15.9864 16.0985C14.7538 14.5348 12.8726 12.8316 10.8815 12.8316ZM15.8897 17.5913C16.1482 17.9192 15.9146 18.4008 15.497 18.4008H1.96764C1.55007 18.4008 1.31647 17.9192 1.57496 17.5913L2.26363 16.7175C3.30655 15.3944 4.89839 13.8316 6.58315 13.8316H10.8815C12.5663 13.8316 14.1581 15.3944 15.201 16.7175L15.8897 17.5913Z"/>
    </symbol>
    <symbol id="search-icon" width="21" height="20" viewBox="0 0 21 20" xmlns="http://www.w3.org/2000/svg">
        <path fill-rule="evenodd" clip-rule="evenodd" d="M15.3226 15.4613C13.8046 16.7478 11.8401 17.5236 9.69443 17.5236C4.884 17.5236 0.984375 13.624 0.984375 8.81357C0.984375 4.00314 4.884 0.103516 9.69443 0.103516C14.5049 0.103516 18.4045 4.00314 18.4045 8.81357C18.4045 11.1184 17.5093 13.2141 16.0476 14.772L20.3183 19.0427C20.5135 19.238 20.5135 19.5546 20.3183 19.7498C20.123 19.9451 19.8064 19.9451 19.6112 19.7498L15.3226 15.4613ZM17.4045 8.81357C17.4045 13.0717 13.9526 16.5236 9.69443 16.5236C5.43629 16.5236 1.98438 13.0717 1.98438 8.81357C1.98438 4.55543 5.43629 1.10352 9.69443 1.10352C13.9526 1.10352 17.4045 4.55543 17.4045 8.81357Z"/>
    </symbol>
    <symbol id="menu-icon" width="22" height="19" viewBox="0 0 22 19" xmlns="http://www.w3.org/2000/svg">
        <path d="M0 0.707031V2.70703H21.75V0.707031H0ZM0 8.70703V10.707H21.75V8.70703H0ZM0 16.707V18.707H21.75V16.707H0Z"/>
    </symbol>

</svg>